<svg class="icon" style="width: 1em;height: 1em;vertical-align: middle;fill: currentColor;overflow: hidden;" viewBox="0 0 1024 1024" version="1.1" xmlns="http://www.w3.org/2000/svg" p-id="3947"><path d="M423.68 826.666667c5.632-11.733333 10.282667-21.888 15.317333-31.872 11.477333-20.48 21.76-41.6 30.976-63.274667a38.954667 38.954667 0 0 1 46.421334-27.904c29.269333 2.005333 58.752 0.426667 89.258666 0.426667V336.384c-20.565333 0-40.832-0.725333-61.013333 0-14.037333 0.725333-18.986667-3.712-18.602667-18.261333 0.981333-34.773333 0-69.717333 0-106.154667h285.738667v84.437333c0 39.68 0 39.68-39.936 39.68h-40.106667v367.786667h86.656c34.944 0 34.944 0 34.944 35.370667v74.154666c0 10.24-2.645333 15.445333-14.165333 15.445334-135.637333-0.256-271.232-0.341333-406.869333-0.298667a64.938667 64.938667 0 0 1-8.576-1.834667z" fill="red" p-id="3948"></path><path d="M477.824 560.298667c-17.877333 35.541333-33.578667 67.2-50.005333 98.432a15.701333 15.701333 0 0 1-12.032 5.802666c-39.722667 0-79.658667 1.493333-119.296-1.365333-39.594667-2.858667-55.466667-27.392-39.68-64.938667 18.005333-43.306667 39.637333-85.12 59.648-127.573333 1.237333-2.688 2.176-5.418667 4.608-11.392-16.042667 0-30.122667 0.426667-44.16 0a169.813333 169.813333 0 0 1-34.133334-2.986667 38.954667 38.954667 0 0 1-30.421333-56.106666c24.106667-55.765333 51.029333-110.378667 77.098667-165.248 8.490667-18.005333 17.322667-35.797333 26.88-53.248 2.474667-4.565333 8.106667-10.325333 12.458666-10.453334 37.205333-0.853333 74.410667-0.426667 114.986667-0.426666-3.498667 8.661333-5.546667 14.634667-8.234667 20.224-22.784 45.866667-45.610667 91.733333-68.522666 137.514666-4.608 9.301333-10.197333 18.986667 7.082666 26.026667 4.608-23.893333 23.210667-19.498667 39.509334-19.498667h93.866666c-3.968 9.002667-6.485333 15.317333-9.386666 21.333334-29.013333 58.453333-58.453333 116.48-87.04 174.762666-11.733333 23.765333-7.765333 29.525333 19.498666 29.781334 14.293333-0.512 28.501333-0.64 47.274667-0.64zM426.709333 704.128c-22.016 42.624-41.685333 80.938667-61.824 118.954667a13.44 13.44 0 0 1-10.197333 5.546666 13600.256 13600.256 0 0 1-162.346667-2.944 111.317333 111.317333 0 0 1-21.674666-5.546666l30.293333-58.922667c9.813333-19.498667 19.456-38.954667 30.037333-57.472a18.048 18.048 0 0 1 12.970667-8.234667c49.621333 2.389333 99.242667 5.717333 148.864 8.618667 9.984 0.426667 19.413333 0 33.877333 0z" fill="red" p-id="3949"></path></svg>
